<svg xmlns="http://www.w3.org/2000/svg" xmlns:xlink="http://www.w3.org/1999/xlink" viewBox="0 0 825 492" width="825" height="492" preserveAspectRatio="xMidYMid meet" style="width: 100%; height: 100%; transform: translate3d(0px, 0px, 0px); content-visibility: visible;"><defs><clipPath id="__lottie_element_16"><rect width="825" height="492" x="0" y="0"></rect></clipPath></defs><g clip-path="url(#__lottie_element_16)"><g style="display: block;" transform="matrix(1,0,0,1,0,0)" opacity="1"><g opacity="1" transform="matrix(1,0,0,1,594,248.5)"><path fill="rgb(70,222,70)" fill-opacity="1" d=" M-106,-179.97900390625 C-106,-181.92300415039062 -104.42400360107422,-183.49899291992188 -102.4800033569336,-183.49899291992188 C-102.4800033569336,-183.49899291992188 102.4800033569336,-183.49899291992188 102.4800033569336,-183.49899291992188 C104.42400360107422,-183.49899291992188 106,-181.92300415039062 106,-179.97900390625 C106,-179.97900390625 106,152.5 106,152.5 C106,152.5 -106,152.5 -106,152.5 C-106,152.5 -106,-179.97900390625 -106,-179.97900390625z"></path></g></g><g style="display: block;" transform="matrix(1,0,0,1,0,0)" opacity="1"><g opacity="1" transform="matrix(1,0,0,1,318.5,367.5)"><path fill="rgb(178,179,178)" fill-opacity="1" d=" M-102.5,-217 C-104.15699768066406,-217 -105.5,-215.65699768066406 -105.5,-214 C-105.5,-214 -105.5,33.5 -105.5,33.5 C-105.5,33.5 105.5,33.5 105.5,33.5 C105.5,33.5 105.5,-214 105.5,-214 C105.5,-215.65699768066406 104.15699768066406,-217 102.5,-217 C102.5,-217 -102.5,-217 -102.5,-217z"></path></g></g><g style="display: block;" transform="matrix(1,0,0,1,0,0)" opacity="1"><g opacity="1" transform="matrix(1,0,0,1,456.5,212.5)"><path stroke-linecap="butt" stroke-linejoin="miter" fill-opacity="0" stroke-miterlimit="4" stroke="rgb(0,0,0)" stroke-opacity="1" stroke-width="1.76" d=" M-352.5,-188.5 C-352.5,-188.5 -352.5,188.5 -352.5,188.5 C-352.5,188.5 352.5,188.5 352.5,188.5"></path></g><g opacity="1" transform="matrix(1,0,0,1,83.4990005493164,38.75600051879883)"><path fill="rgb(152,153,152)" fill-opacity="1" d=" M0.020999999716877937,7.718999862670898 C-1.1200000047683716,7.718999862670898 -2.0910000801086426,7.416999816894531 -2.8929998874664307,6.810999870300293 C-3.696000099182129,6.205999851226807 -4.308000087738037,5.324999809265137 -4.730999946594238,4.170000076293945 C-5.1529998779296875,3.0160000324249268 -5.363999843597412,1.6369999647140503 -5.363999843597412,0.03200000151991844 C-5.363999843597412,-1.5729999542236328 -5.145999908447266,-2.953000068664551 -4.710000038146973,-4.10699987411499 C-4.2729997634887695,-5.276000022888184 -3.6540000438690186,-6.171000003814697 -2.8510000705718994,-6.790999889373779 C-2.0350000858306885,-7.409999847412109 -1.0770000219345093,-7.718999862670898 0.020999999716877937,-7.718999862670898 C1.1050000190734863,-7.718999862670898 2.0480000972747803,-7.409999847412109 2.8510000705718994,-6.790999889373779 C3.6540000438690186,-6.184999942779541 4.2729997634887695,-5.297999858856201 4.710000038146973,-4.130000114440918 C5.145999908447266,-2.9749999046325684 5.363999843597412,-1.5870000123977661 5.363999843597412,0.03200000151991844 C5.363999843597412,1.6510000228881836 5.1529998779296875,3.0369999408721924 4.730999946594238,4.191999912261963 C4.308000087738037,5.3460001945495605 3.696000099182129,6.2270002365112305 2.8929998874664307,6.833000183105469 C2.0910000801086426,7.423999786376953 1.1330000162124634,7.718999862670898 0.020999999716877937,7.718999862670898z M0.020999999716877937,6.218999862670898 C0.753000020980835,6.218999862670898 1.3730000257492065,6.000999927520752 1.8799999952316284,5.564000129699707 C2.385999917984009,5.113999843597412 2.7739999294281006,4.431000232696533 3.0409998893737793,3.5160000324249268 C3.309000015258789,2.5859999656677246 3.441999912261963,1.4259999990463257 3.441999912261963,0.03200000151991844 C3.441999912261963,-2.065999984741211 3.1470000743865967,-3.630000114440918 2.555000066757202,-4.6570000648498535 C1.9780000448226929,-5.684999942779541 1.1330000162124634,-6.198999881744385 0.020999999716877937,-6.198999881744385 C-0.7390000224113464,-6.198999881744385 -1.3730000257492065,-5.973999977111816 -1.8799999952316284,-5.5229997634887695 C-2.38700008392334,-5.072999954223633 -2.7739999294281006,-4.382999897003174 -3.0409998893737793,-3.4539999961853027 C-3.2950000762939453,-2.5390000343322754 -3.4210000038146973,-1.3760000467300415 -3.4210000038146973,0.03200000151991844 C-3.4210000038146973,2.1019999980926514 -3.125999927520752,3.6510000228881836 -2.5339999198913574,4.677999973297119 C-1.9290000200271606,5.705999851226807 -1.0770000219345093,6.218999862670898 0.020999999716877937,6.218999862670898z"></path></g><g opacity="1" transform="matrix(1,0,0,1,71.65899658203125,38.92499923706055)"><path fill="rgb(152,153,152)" fill-opacity="1" d=" M-0.14800000190734863,7.550000190734863 C-1.1480000019073486,7.550000190734863 -2.0209999084472656,7.374000072479248 -2.7669999599456787,7.021999835968018 C-3.513000011444092,6.656000137329102 -4.090000152587891,6.156000137329102 -4.499000072479248,5.5229997634887695 C-4.89300012588501,4.875 -5.090000152587891,4.129000186920166 -5.090000152587891,3.2839999198913574 C-5.090000152587891,3.2839999198913574 -3.188999891281128,3.2839999198913574 -3.188999891281128,3.2839999198913574 C-3.188999891281128,4.129000186920166 -2.928999900817871,4.803999900817871 -2.4079999923706055,5.310999870300293 C-1.8730000257492065,5.803999900817871 -1.1410000324249268,6.050000190734863 -0.210999995470047,6.050000190734863 C0.49300000071525574,6.050000190734863 1.0980000495910645,5.9029998779296875 1.6050000190734863,5.60699987411499 C2.111999988555908,5.310999870300293 2.499000072479248,4.888999938964844 2.7669999599456787,4.340000152587891 C3.0339999198913574,3.7909998893737793 3.1679999828338623,3.1500000953674316 3.1679999828338623,2.4179999828338623 C3.1679999828338623,1.3480000495910645 2.885999917984009,0.48899999260902405 2.322999954223633,-0.1589999943971634 C1.7740000486373901,-0.8059999942779541 1.0140000581741333,-1.1299999952316284 0.041999999433755875,-1.1299999952316284 C-0.6899999976158142,-1.1299999952316284 -1.3450000286102295,-0.9259999990463257 -1.9220000505447388,-0.5180000066757202 C-2.499000072479248,-0.10899999737739563 -2.885999917984009,0.3409999907016754 -3.0840001106262207,0.8339999914169312 C-3.0840001106262207,0.8339999914169312 -4.879000186920166,0.8339999914169312 -4.879000186920166,0.8339999914169312 C-4.879000186920166,0.8339999914169312 -3.802000045776367,-7.550000190734863 -3.802000045776367,-7.550000190734863 C-3.802000045776367,-7.550000190734863 4.244999885559082,-7.550000190734863 4.244999885559082,-7.550000190734863 C4.244999885559082,-7.550000190734863 4.244999885559082,-5.861000061035156 4.244999885559082,-5.861000061035156 C4.244999885559082,-5.861000061035156 -2.38700008392334,-5.861000061035156 -2.38700008392334,-5.861000061035156 C-2.38700008392334,-5.861000061035156 -2.871999979019165,-2.122999906539917 -2.871999979019165,-2.122999906539917 C-2.885999917984009,-2.0380001068115234 -2.9010000228881836,-1.940000057220459 -2.9149999618530273,-1.8270000219345093 C-2.9149999618530273,-1.7289999723434448 -2.921999931335449,-1.6230000257492065 -2.936000108718872,-1.5099999904632568 C-2.9639999866485596,-1.284999966621399 -2.984999895095825,-1.1230000257492065 -2.999000072479248,-1.0240000486373901 C-2.61899995803833,-1.5169999599456787 -2.11899995803833,-1.9040000438690186 -1.5,-2.186000108718872 C-0.8799999952316284,-2.4820001125335693 -0.21799999475479126,-2.630000114440918 0.4860000014305115,-2.630000114440918 C1.3730000257492065,-2.630000114440918 2.1679999828338623,-2.4110000133514404 2.871999979019165,-1.975000023841858 C3.5759999752044678,-1.5529999732971191 4.118000030517578,-0.9610000252723694 4.498000144958496,-0.20100000500679016 C4.89300012588501,0.5450000166893005 5.090000152587891,1.3760000467300415 5.090000152587891,2.2909998893737793 C5.090000152587891,3.319000005722046 4.870999813079834,4.234000205993652 4.434999942779541,5.0370001792907715 C3.999000072479248,5.824999809265137 3.385999917984009,6.445000171661377 2.5980000495910645,6.894999980926514 C1.809000015258789,7.331999778747559 0.8939999938011169,7.550000190734863 -0.14800000190734863,7.550000190734863z"></path></g><g opacity="1" transform="matrix(1,0,0,1,59.43899917602539,38.75600051879883)"><path fill="rgb(152,153,152)" fill-opacity="1" d=" M0.020999999716877937,7.718999862670898 C-1.1200000047683716,7.718999862670898 -2.0910000801086426,7.416999816894531 -2.8940000534057617,6.810999870300293 C-3.696000099182129,6.205999851226807 -4.308000087738037,5.324999809265137 -4.730999946594238,4.170000076293945 C-5.1529998779296875,3.0160000324249268 -5.363999843597412,1.6369999647140503 -5.363999843597412,0.03200000151991844 C-5.363999843597412,-1.5729999542236328 -5.145999908447266,-2.953000068664551 -4.710000038146973,-4.10699987411499 C-4.2729997634887695,-5.276000022888184 -3.6540000438690186,-6.171000003814697 -2.8510000705718994,-6.790999889373779 C-2.0350000858306885,-7.409999847412109 -1.0770000219345093,-7.718999862670898 0.020999999716877937,-7.718999862670898 C1.1050000190734863,-7.718999862670898 2.0480000972747803,-7.409999847412109 2.8510000705718994,-6.790999889373779 C3.6540000438690186,-6.184999942779541 4.2729997634887695,-5.297999858856201 4.710000038146973,-4.130000114440918 C5.145999908447266,-2.9749999046325684 5.363999843597412,-1.5870000123977661 5.363999843597412,0.03200000151991844 C5.363999843597412,1.6510000228881836 5.1529998779296875,3.0369999408721924 4.730999946594238,4.191999912261963 C4.308000087738037,5.3460001945495605 3.696000099182129,6.2270002365112305 2.8929998874664307,6.833000183105469 C2.0910000801086426,7.423999786376953 1.1330000162124634,7.718999862670898 0.020999999716877937,7.718999862670898z M0.020999999716877937,6.218999862670898 C0.753000020980835,6.218999862670898 1.3730000257492065,6.000999927520752 1.8799999952316284,5.564000129699707 C2.385999917984009,5.113999843597412 2.7739999294281006,4.431000232696533 3.0409998893737793,3.5160000324249268 C3.309000015258789,2.5859999656677246 3.441999912261963,1.4259999990463257 3.441999912261963,0.03200000151991844 C3.441999912261963,-2.065999984741211 3.1470000743865967,-3.630000114440918 2.555000066757202,-4.6570000648498535 C1.9780000448226929,-5.684999942779541 1.1330000162124634,-6.198999881744385 0.020999999716877937,-6.198999881744385 C-0.7390000224113464,-6.198999881744385 -1.3730000257492065,-5.973999977111816 -1.8799999952316284,-5.5229997634887695 C-2.38700008392334,-5.072999954223633 -2.7739999294281006,-4.382999897003174 -3.0409998893737793,-3.4539999961853027 C-3.2950000762939453,-2.5390000343322754 -3.421999931335449,-1.3760000467300415 -3.421999931335449,0.03200000151991844 C-3.421999931335449,2.1019999980926514 -3.125999927520752,3.6510000228881836 -2.5339999198913574,4.677999973297119 C-1.9290000200271606,5.705999851226807 -1.0770000219345093,6.218999862670898 0.020999999716877937,6.218999862670898z"></path></g><g opacity="1" transform="matrix(1,0,0,1,83.68900299072266,215.04200744628906)"><path fill="rgb(152,153,152)" fill-opacity="1" d=" M-0.14800000190734863,7.551000118255615 C-1.1480000019073486,7.551000118255615 -2.0209999084472656,7.374000072479248 -2.7669999599456787,7.021999835968018 C-3.513000011444092,6.656000137329102 -4.090000152587891,6.156000137329102 -4.499000072479248,5.521999835968018 C-4.89300012588501,4.875 -5.090000152587891,4.129000186920166 -5.090000152587891,3.2850000858306885 C-5.090000152587891,3.2850000858306885 -3.188999891281128,3.2850000858306885 -3.188999891281128,3.2850000858306885 C-3.188999891281128,4.129000186920166 -2.928999900817871,4.803999900817871 -2.4079999923706055,5.310999870300293 C-1.8730000257492065,5.803999900817871 -1.1410000324249268,6.051000118255615 -0.210999995470047,6.051000118255615 C0.49300000071525574,6.051000118255615 1.0980000495910645,5.9029998779296875 1.6050000190734863,5.607999801635742 C2.111999988555908,5.311999797821045 2.499000072479248,4.889999866485596 2.7669999599456787,4.341000080108643 C3.0339999198913574,3.7909998893737793 3.1679999828338623,3.1510000228881836 3.1679999828338623,2.4189999103546143 C3.1679999828338623,1.3489999771118164 2.885999917984009,0.48899999260902405 2.322999954223633,-0.1589999943971634 C1.7740000486373901,-0.8069999814033508 1.0140000581741333,-1.128999948501587 0.041999999433755875,-1.128999948501587 C-0.6899999976158142,-1.128999948501587 -1.3450000286102295,-0.925000011920929 -1.9220000505447388,-0.5170000195503235 C-2.499000072479248,-0.10899999737739563 -2.885999917984009,0.34200000762939453 -3.0840001106262207,0.8349999785423279 C-3.0840001106262207,0.8349999785423279 -4.879000186920166,0.8349999785423279 -4.879000186920166,0.8349999785423279 C-4.879000186920166,0.8349999785423279 -3.802000045776367,-7.551000118255615 -3.802000045776367,-7.551000118255615 C-3.802000045776367,-7.551000118255615 4.244999885559082,-7.551000118255615 4.244999885559082,-7.551000118255615 C4.244999885559082,-7.551000118255615 4.244999885559082,-5.861000061035156 4.244999885559082,-5.861000061035156 C4.244999885559082,-5.861000061035156 -2.38700008392334,-5.861000061035156 -2.38700008392334,-5.861000061035156 C-2.38700008392334,-5.861000061035156 -2.871999979019165,-2.121999979019165 -2.871999979019165,-2.121999979019165 C-2.885999917984009,-2.0380001068115234 -2.9010000228881836,-1.940000057220459 -2.9149999618530273,-1.8270000219345093 C-2.9149999618530273,-1.7289999723434448 -2.921999931335449,-1.621999979019165 -2.936000108718872,-1.5099999904632568 C-2.9639999866485596,-1.284000039100647 -2.984999895095825,-1.1230000257492065 -2.999000072479248,-1.024999976158142 C-2.61899995803833,-1.5180000066757202 -2.11899995803833,-1.9040000438690186 -1.5,-2.184999942779541 C-0.8799999952316284,-2.4809999465942383 -0.21799999475479126,-2.628999948501587 0.4860000014305115,-2.628999948501587 C1.3730000257492065,-2.628999948501587 2.1679999828338623,-2.4110000133514404 2.871999979019165,-1.9739999771118164 C3.5759999752044678,-1.5520000457763672 4.118000030517578,-0.9610000252723694 4.498000144958496,-0.20100000500679016 C4.892000198364258,0.5450000166893005 5.090000152587891,1.3769999742507935 5.090000152587891,2.2920000553131104 C5.090000152587891,3.319999933242798 4.870999813079834,4.234000205993652 4.434999942779541,5.035999774932861 C3.997999906539917,5.824999809265137 3.385999917984009,6.445000171661377 2.5969998836517334,6.895999908447266 C1.809000015258789,7.331999778747559 0.8939999938011169,7.551000118255615 -0.14800000190734863,7.551000118255615z"></path></g><g opacity="1" transform="matrix(1,0,0,1,71.47899627685547,214.71400451660156)"><path fill="rgb(152,153,152)" fill-opacity="1" d=" M-5.0370001792907715,7.560999870300293 C-5.0370001792907715,6.913000106811523 -4.938000202178955,6.335999965667725 -4.741000175476074,5.828999996185303 C-4.544000148773193,5.308000087738037 -4.2270002365112305,4.801000118255615 -3.7909998893737793,4.308000087738037 C-3.3399999141693115,3.802000045776367 -2.7209999561309814,3.252000093460083 -1.9320000410079956,2.6610000133514404 C-1.9320000410079956,2.6610000133514404 0.07400000095367432,1.11899995803833 0.07400000095367432,1.11899995803833 C0.5950000286102295,0.7110000252723694 1.0529999732971191,0.3100000023841858 1.4470000267028809,-0.08399999886751175 C1.840999960899353,-0.4790000021457672 2.171999931335449,-0.9290000200271606 2.438999891281128,-1.4359999895095825 C2.7209999561309814,-1.9570000171661377 2.861999988555908,-2.50600004196167 2.861999988555908,-3.0829999446868896 C2.861999988555908,-3.6470000743865967 2.749000072479248,-4.1529998779296875 2.5239999294281006,-4.604000091552734 C2.2980000972747803,-5.054999828338623 1.975000023841858,-5.4070000648498535 1.5520000457763672,-5.659999847412109 C1.1299999952316284,-5.913000106811523 0.6299999952316284,-6.039999961853027 0.05299999937415123,-6.039999961853027 C-0.5529999732971191,-6.039999961853027 -1.0809999704360962,-5.89900016784668 -1.531000018119812,-5.618000030517578 C-1.9819999933242798,-5.335999965667725 -2.3340001106262207,-4.914000034332275 -2.5869998931884766,-4.35099983215332 C-2.8399999141693115,-3.8010001182556152 -2.9670000076293945,-3.132999897003174 -2.9670000076293945,-2.3440001010894775 C-2.9670000076293945,-2.3440001010894775 -2.9670000076293945,-2.069999933242798 -2.9670000076293945,-2.069999933242798 C-2.9670000076293945,-2.069999933242798 -4.888999938964844,-2.069999933242798 -4.888999938964844,-2.069999933242798 C-4.888999938964844,-2.069999933242798 -4.888999938964844,-2.555000066757202 -4.888999938964844,-2.555000066757202 C-4.888999938964844,-3.5829999446868896 -4.677999973297119,-4.46999979019165 -4.25600004196167,-5.216000080108643 C-3.819000005722046,-5.9770002365112305 -3.2279999256134033,-6.553999900817871 -2.4820001125335693,-6.947999954223633 C-1.7209999561309814,-7.35699987411499 -0.8759999871253967,-7.560999870300293 0.05299999937415123,-7.560999870300293 C0.9539999961853027,-7.560999870300293 1.7640000581741333,-7.377999782562256 2.4820001125335693,-7.01200008392334 C3.200000047683716,-6.645999908447266 3.763000011444092,-6.125 4.171000003814697,-5.448999881744385 C4.579999923706055,-4.7870001792907715 4.783999919891357,-4.00600004196167 4.783999919891357,-3.1040000915527344 C4.783999919891357,-2.371999979019165 4.636000156402588,-1.6890000104904175 4.340000152587891,-1.055999994277954 C4.044000148773193,-0.4359999895095825 3.6010000705718994,0.17599999904632568 3.009999990463257,0.7820000052452087 C2.4179999828338623,1.3869999647140503 1.6369999647140503,2.062999963760376 0.6650000214576721,2.809000015258789 C0.6650000214576721,2.809000015258789 -0.3700000047683716,3.5899999141693115 -0.3700000047683716,3.5899999141693115 C-1.1160000562667847,4.1539998054504395 -1.6790000200271606,4.611000061035156 -2.059000015258789,4.9629998207092285 C-2.424999952316284,5.315000057220459 -2.6500000953674316,5.618000030517578 -2.734999895095825,5.870999813079834 C-2.734999895095825,5.870999813079834 5.0370001792907715,5.870999813079834 5.0370001792907715,5.870999813079834 C5.0370001792907715,5.870999813079834 5.0370001792907715,7.560999870300293 5.0370001792907715,7.560999870300293 C5.0370001792907715,7.560999870300293 -5.0370001792907715,7.560999870300293 -5.0370001792907715,7.560999870300293z"></path></g><g opacity="1" transform="matrix(1,0,0,1,59.43899917602539,214.8730010986328)"><path fill="rgb(152,153,152)" fill-opacity="1" d=" M0.020999999716877937,7.718999862670898 C-1.1200000047683716,7.718999862670898 -2.0910000801086426,7.416999816894531 -2.8940000534057617,6.811999797821045 C-3.696000099182129,6.205999851226807 -4.308000087738037,5.324999809265137 -4.730999946594238,4.171000003814697 C-5.1529998779296875,3.0160000324249268 -5.363999843597412,1.6369999647140503 -5.363999843597412,0.03200000151991844 C-5.363999843597412,-1.5729999542236328 -5.145999908447266,-2.953000068664551 -4.710000038146973,-4.10699987411499 C-4.2729997634887695,-5.276000022888184 -3.6540000438690186,-6.171000003814697 -2.8510000705718994,-6.789999961853027 C-2.0350000858306885,-7.409999847412109 -1.0770000219345093,-7.718999862670898 0.020999999716877937,-7.718999862670898 C1.1050000190734863,-7.718999862670898 2.0480000972747803,-7.409999847412109 2.8510000705718994,-6.789999961853027 C3.6540000438690186,-6.184999942779541 4.2729997634887695,-5.296999931335449 4.710000038146973,-4.127999782562256 C5.145999908447266,-2.9739999771118164 5.363999843597412,-1.5870000123977661 5.363999843597412,0.03200000151991844 C5.363999843597412,1.6510000228881836 5.1529998779296875,3.0369999408721924 4.730999946594238,4.191999912261963 C4.308000087738037,5.3460001945495605 3.696000099182129,6.2270002365112305 2.8929998874664307,6.833000183105469 C2.0910000801086426,7.423999786376953 1.1330000162124634,7.718999862670898 0.020999999716877937,7.718999862670898z M0.020999999716877937,6.218999862670898 C0.753000020980835,6.218999862670898 1.3730000257492065,6.000999927520752 1.8799999952316284,5.564000129699707 C2.385999917984009,5.113999843597412 2.7739999294281006,4.431000232696533 3.0409998893737793,3.5160000324249268 C3.309000015258789,2.5869998931884766 3.441999912261963,1.4259999990463257 3.441999912261963,0.03200000151991844 C3.441999912261963,-2.065999984741211 3.1470000743865967,-3.630000114440918 2.555000066757202,-4.6570000648498535 C1.9780000448226929,-5.684999942779541 1.1330000162124634,-6.198999881744385 0.020999999716877937,-6.198999881744385 C-0.7390000224113464,-6.198999881744385 -1.3730000257492065,-5.973999977111816 -1.8799999952316284,-5.5229997634887695 C-2.38700008392334,-5.072999954223633 -2.7739999294281006,-4.382999897003174 -3.0409998893737793,-3.4539999961853027 C-3.2950000762939453,-2.5380001068115234 -3.421999931335449,-1.3760000467300415 -3.421999931335449,0.03200000151991844 C-3.421999931335449,2.1019999980926514 -3.125999927520752,3.6510000228881836 -2.5339999198913574,4.677999973297119 C-1.9290000200271606,5.705999851226807 -1.0770000219345093,6.218999862670898 0.020999999716877937,6.218999862670898z"></path></g><g opacity="1" transform="matrix(1,0,0,1,83.4990005493164,390.989013671875)"><path fill="rgb(152,153,152)" fill-opacity="1" d=" M0.020999999716877937,7.718999862670898 C-1.1200000047683716,7.718999862670898 -2.0910000801086426,7.416999816894531 -2.8929998874664307,6.810999870300293 C-3.696000099182129,6.205999851226807 -4.308000087738037,5.326000213623047 -4.730999946594238,4.171000003814697 C-5.1529998779296875,3.0169999599456787 -5.363999843597412,1.6369999647140503 -5.363999843597412,0.03200000151991844 C-5.363999843597412,-1.5729999542236328 -5.145999908447266,-2.953000068664551 -4.710000038146973,-4.107999801635742 C-4.2729997634887695,-5.276000022888184 -3.6540000438690186,-6.170000076293945 -2.8510000705718994,-6.789999961853027 C-2.0350000858306885,-7.408999919891357 -1.0770000219345093,-7.718999862670898 0.020999999716877937,-7.718999862670898 C1.1050000190734863,-7.718999862670898 2.0480000972747803,-7.408999919891357 2.8510000705718994,-6.789999961853027 C3.6540000438690186,-6.184000015258789 4.2729997634887695,-5.296999931335449 4.710000038146973,-4.129000186920166 C5.145999908447266,-2.9739999771118164 5.363999843597412,-1.5870000123977661 5.363999843597412,0.03200000151991844 C5.363999843597412,1.6510000228881836 5.1529998779296875,3.0380001068115234 4.730999946594238,4.191999912261963 C4.308000087738037,5.3470001220703125 3.696000099182129,6.2270002365112305 2.8929998874664307,6.831999778747559 C2.0910000801086426,7.423999786376953 1.1330000162124634,7.718999862670898 0.020999999716877937,7.718999862670898z M0.020999999716877937,6.21999979019165 C0.753000020980835,6.21999979019165 1.3730000257492065,6.001999855041504 1.8799999952316284,5.565000057220459 C2.385999917984009,5.114999771118164 2.7739999294281006,4.432000160217285 3.0409998893737793,3.5169999599456787 C3.309000015258789,2.5869998931884766 3.441999912261963,1.4259999990463257 3.441999912261963,0.03200000151991844 C3.441999912261963,-2.065999984741211 3.1470000743865967,-3.628999948501587 2.555000066757202,-4.6570000648498535 C1.9780000448226929,-5.684999942779541 1.1330000162124634,-6.197999954223633 0.020999999716877937,-6.197999954223633 C-0.7390000224113464,-6.197999954223633 -1.3730000257492065,-5.9730000495910645 -1.8799999952316284,-5.5229997634887695 C-2.38700008392334,-5.072000026702881 -2.7739999294281006,-4.381999969482422 -3.0409998893737793,-3.453000068664551 C-3.2950000762939453,-2.5380001068115234 -3.4210000038146973,-1.3760000467300415 -3.4210000038146973,0.03200000151991844 C-3.4210000038146973,2.1019999980926514 -3.125999927520752,3.6500000953674316 -2.5339999198913574,4.677999973297119 C-1.9290000200271606,5.705999851226807 -1.0770000219345093,6.21999979019165 0.020999999716877937,6.21999979019165z"></path></g><g opacity="1" transform="matrix(1,0,0,1,71.46900177001953,390.989013671875)"><path fill="rgb(152,153,152)" fill-opacity="1" d=" M0.020999999716877937,7.718999862670898 C-1.1200000047683716,7.718999862670898 -2.0910000801086426,7.416999816894531 -2.8940000534057617,6.810999870300293 C-3.696000099182129,6.205999851226807 -4.308000087738037,5.326000213623047 -4.730999946594238,4.171000003814697 C-5.1529998779296875,3.0169999599456787 -5.363999843597412,1.6369999647140503 -5.363999843597412,0.03200000151991844 C-5.363999843597412,-1.5729999542236328 -5.145999908447266,-2.953000068664551 -4.710000038146973,-4.107999801635742 C-4.2729997634887695,-5.276000022888184 -3.6540000438690186,-6.170000076293945 -2.8510000705718994,-6.789999961853027 C-2.0350000858306885,-7.408999919891357 -1.0770000219345093,-7.718999862670898 0.020999999716877937,-7.718999862670898 C1.1050000190734863,-7.718999862670898 2.0480000972747803,-7.408999919891357 2.8510000705718994,-6.789999961853027 C3.6540000438690186,-6.184000015258789 4.2729997634887695,-5.296999931335449 4.709000110626221,-4.129000186920166 C5.145999908447266,-2.9739999771118164 5.363999843597412,-1.5870000123977661 5.363999843597412,0.03200000151991844 C5.363999843597412,1.6510000228881836 5.1529998779296875,3.0380001068115234 4.730999946594238,4.191999912261963 C4.308000087738037,5.3470001220703125 3.696000099182129,6.2270002365112305 2.8929998874664307,6.831999778747559 C2.0910000801086426,7.423999786376953 1.1330000162124634,7.718999862670898 0.020999999716877937,7.718999862670898z M0.020999999716877937,6.21999979019165 C0.753000020980835,6.21999979019165 1.3730000257492065,6.001999855041504 1.878999948501587,5.565000057220459 C2.385999917984009,5.114999771118164 2.7739999294281006,4.432000160217285 3.0409998893737793,3.5169999599456787 C3.309000015258789,2.5869998931884766 3.441999912261963,1.4259999990463257 3.441999912261963,0.03200000151991844 C3.441999912261963,-2.065999984741211 3.1470000743865967,-3.628999948501587 2.555000066757202,-4.6570000648498535 C1.9780000448226929,-5.684999942779541 1.1330000162124634,-6.197999954223633 0.020999999716877937,-6.197999954223633 C-0.7390000224113464,-6.197999954223633 -1.3730000257492065,-5.9730000495910645 -1.8799999952316284,-5.5229997634887695 C-2.38700008392334,-5.072000026702881 -2.7739999294281006,-4.381999969482422 -3.0409998893737793,-3.453000068664551 C-3.2950000762939453,-2.5380001068115234 -3.421999931335449,-1.3760000467300415 -3.421999931335449,0.03200000151991844 C-3.421999931335449,2.1019999980926514 -3.125999927520752,3.6500000953674316 -2.5350000858306885,4.677999973297119 C-1.9290000200271606,5.705999851226807 -1.0770000219345093,6.21999979019165 0.020999999716877937,6.21999979019165z"></path></g><g opacity="1" transform="matrix(1,0,0,1,59.43899917602539,390.989013671875)"><path fill="rgb(152,153,152)" fill-opacity="1" d=" M0.020999999716877937,7.718999862670898 C-1.1200000047683716,7.718999862670898 -2.0910000801086426,7.416999816894531 -2.8940000534057617,6.810999870300293 C-3.696000099182129,6.205999851226807 -4.308000087738037,5.326000213623047 -4.730999946594238,4.171000003814697 C-5.1529998779296875,3.0169999599456787 -5.363999843597412,1.6369999647140503 -5.363999843597412,0.03200000151991844 C-5.363999843597412,-1.5729999542236328 -5.145999908447266,-2.953000068664551 -4.710000038146973,-4.107999801635742 C-4.2729997634887695,-5.276000022888184 -3.6540000438690186,-6.170000076293945 -2.8510000705718994,-6.789999961853027 C-2.0350000858306885,-7.408999919891357 -1.0770000219345093,-7.718999862670898 0.020999999716877937,-7.718999862670898 C1.1050000190734863,-7.718999862670898 2.0480000972747803,-7.408999919891357 2.8510000705718994,-6.789999961853027 C3.6540000438690186,-6.184000015258789 4.2729997634887695,-5.296999931335449 4.710000038146973,-4.129000186920166 C5.145999908447266,-2.9739999771118164 5.363999843597412,-1.5870000123977661 5.363999843597412,0.03200000151991844 C5.363999843597412,1.6510000228881836 5.1529998779296875,3.0380001068115234 4.730999946594238,4.191999912261963 C4.308000087738037,5.3470001220703125 3.696000099182129,6.2270002365112305 2.8929998874664307,6.831999778747559 C2.0910000801086426,7.423999786376953 1.1330000162124634,7.718999862670898 0.020999999716877937,7.718999862670898z M0.020999999716877937,6.21999979019165 C0.753000020980835,6.21999979019165 1.3730000257492065,6.001999855041504 1.8799999952316284,5.565000057220459 C2.385999917984009,5.114999771118164 2.7739999294281006,4.432000160217285 3.0409998893737793,3.5169999599456787 C3.309000015258789,2.5869998931884766 3.441999912261963,1.4259999990463257 3.441999912261963,0.03200000151991844 C3.441999912261963,-2.065999984741211 3.1470000743865967,-3.628999948501587 2.555000066757202,-4.6570000648498535 C1.9780000448226929,-5.684999942779541 1.1330000162124634,-6.197999954223633 0.020999999716877937,-6.197999954223633 C-0.7390000224113464,-6.197999954223633 -1.3730000257492065,-5.9730000495910645 -1.8799999952316284,-5.5229997634887695 C-2.38700008392334,-5.072000026702881 -2.7739999294281006,-4.381999969482422 -3.0409998893737793,-3.453000068664551 C-3.2950000762939453,-2.5380001068115234 -3.421999931335449,-1.3760000467300415 -3.421999931335449,0.03200000151991844 C-3.421999931335449,2.1019999980926514 -3.125999927520752,3.6500000953674316 -2.5339999198913574,4.677999973297119 C-1.9290000200271606,5.705999851226807 -1.0770000219345093,6.21999979019165 0.020999999716877937,6.21999979019165z"></path></g><g opacity="1" transform="matrix(1,0,0,1,28.652999877929688,129.2779998779297)"><path fill="rgb(0,0,0)" fill-opacity="1" d=" M-9.071000099182129,1.0670000314712524 C-9.071000099182129,1.0670000314712524 -8.902000427246094,0.8980000019073486 -8.902000427246094,0.8980000019073486 C-7.64900016784668,-0.31299999356269836 -6.303999900817871,-1.25600004196167 -4.868000030517578,-1.9320000410079956 C-3.446000099182129,-2.6080000400543213 -1.8270000219345093,-2.946000099182129 -0.010999999940395355,-2.946000099182129 C1.8619999885559082,-2.946000099182129 3.5299999713897705,-2.5940001010894775 4.994999885559082,-1.8899999856948853 C6.445000171661377,-1.1859999895095825 7.802999973297119,-0.20000000298023224 9.071000099182129,1.0670000314712524 C9.071000099182129,1.0670000314712524 9.071000099182129,2.946000099182129 9.071000099182129,2.946000099182129 C7.663000106811523,1.6230000257492065 6.241000175476074,0.6159999966621399 4.804999828338623,-0.07400000095367432 C3.368000030517578,-0.7639999985694885 1.7699999809265137,-1.1089999675750732 0.009999999776482582,-1.1089999675750732 C-1.7640000581741333,-1.1089999675750732 -3.36899995803833,-0.7639999985694885 -4.804999828338623,-0.07400000095367432 C-6.241000175476074,0.6159999966621399 -7.663000106811523,1.6230000257492065 -9.071000099182129,2.946000099182129 C-9.071000099182129,2.946000099182129 -9.071000099182129,1.0670000314712524 -9.071000099182129,1.0670000314712524z"></path></g><g opacity="1" transform="matrix(1,0,0,1,27.60700035095215,141.13900756835938)"><path fill="rgb(0,0,0)" fill-opacity="1" d=" M7.392000198364258,5.0370001792907715 C7.392000198364258,5.0370001792907715 -7.392000198364258,5.0370001792907715 -7.392000198364258,5.0370001792907715 C-7.392000198364258,5.0370001792907715 -7.392000198364258,2.375999927520752 -7.392000198364258,2.375999927520752 C-7.392000198364258,2.375999927520752 -0.12700000405311584,0.43299999833106995 -0.12700000405311584,0.43299999833106995 C0.02800000086426735,0.39100000262260437 0.18299999833106995,0.3490000069141388 0.33799999952316284,0.3059999942779541 C0.49300000071525574,0.2639999985694885 0.6480000019073486,0.22200000286102295 0.8029999732971191,0.18000000715255737 C0.9430000185966492,0.15199999511241913 1.0839999914169312,0.11599999666213989 1.225000023841858,0.07400000095367432 C1.3660000562667847,0.03200000151991844 1.5069999694824219,-0.009999999776482582 1.6480000019073486,-0.05299999937415123 C1.590999960899353,-0.06700000166893005 1.5420000553131104,-0.08100000023841858 1.5,-0.0949999988079071 C1.4429999589920044,-0.10899999737739563 1.3869999647140503,-0.12300000339746475 1.3309999704360962,-0.13699999451637268 C1.090999960899353,-0.19300000369548798 0.8519999980926514,-0.25 0.6129999756813049,-0.3059999942779541 C0.37299999594688416,-0.37599998712539673 0.12700000405311584,-0.44699999690055847 -0.12700000405311584,-0.5170000195503235 C-0.12700000405311584,-0.5170000195503235 -7.392000198364258,-2.4179999828338623 -7.392000198364258,-2.4179999828338623 C-7.392000198364258,-2.4179999828338623 -7.392000198364258,-5.0370001792907715 -7.392000198364258,-5.0370001792907715 C-7.392000198364258,-5.0370001792907715 7.392000198364258,-5.0370001792907715 7.392000198364258,-5.0370001792907715 C7.392000198364258,-5.0370001792907715 7.392000198364258,-3.3469998836517334 7.392000198364258,-3.3469998836517334 C7.392000198364258,-3.3469998836517334 -3.2100000381469727,-3.431999921798706 -3.2100000381469727,-3.431999921798706 C-3.2100000381469727,-3.431999921798706 -4.4770002365112305,-3.431999921798706 -4.4770002365112305,-3.431999921798706 C-4.870999813079834,-3.431999921798706 -5.230000019073486,-3.438999891281128 -5.553999900817871,-3.453000068664551 C-5.553999900817871,-3.453000068664551 3.802000045776367,-1.0240000486373901 3.802000045776367,-1.0240000486373901 C3.802000045776367,-1.0240000486373901 3.802000045776367,1.003000020980835 3.802000045776367,1.003000020980835 C3.802000045776367,1.003000020980835 -5.5329999923706055,3.4739999771118164 -5.5329999923706055,3.4739999771118164 C-5.335999965667725,3.4600000381469727 -5.145999908447266,3.453000068664551 -4.9629998207092285,3.453000068664551 C-4.78000020980835,3.453000068664551 -4.604000091552734,3.446000099182129 -4.434999942779541,3.431999921798706 C-4.434999942779541,3.431999921798706 -3.885999917984009,3.431999921798706 -3.885999917984009,3.431999921798706 C-3.885999917984009,3.431999921798706 -3.3369998931884766,3.431999921798706 -3.3369998931884766,3.431999921798706 C-3.3369998931884766,3.431999921798706 7.392000198364258,3.3480000495910645 7.392000198364258,3.3480000495910645 C7.392000198364258,3.3480000495910645 7.392000198364258,5.0370001792907715 7.392000198364258,5.0370001792907715z"></path></g><g opacity="1" transform="matrix(1,0,0,1,29.739999771118164,153.07400512695312)"><path fill="rgb(0,0,0)" fill-opacity="1" d=" M5.258999824523926,5.3429999351501465 C5.258999824523926,5.3429999351501465 -4.921000003814697,5.3429999351501465 -4.921000003814697,5.3429999351501465 C-4.921000003814697,5.3429999351501465 -4.921000003814697,3.696000099182129 -4.921000003814697,3.696000099182129 C-4.921000003814697,3.696000099182129 -4.138999938964844,3.696000099182129 -4.138999938964844,3.696000099182129 C-4.138999938964844,3.696000099182129 -3.990999937057495,3.696000099182129 -3.990999937057495,3.696000099182129 C-3.990999937057495,3.696000099182129 -3.8429999351501465,3.696000099182129 -3.8429999351501465,3.696000099182129 C-3.8429999351501465,3.696000099182129 -3.696000099182129,3.696000099182129 -3.696000099182129,3.696000099182129 C-3.696000099182129,3.696000099182129 -3.5480000972747803,3.696000099182129 -3.5480000972747803,3.696000099182129 C-4.0970001220703125,3.513000011444092 -4.519000053405762,3.2309999465942383 -4.815000057220459,2.8510000705718994 C-5.111000061035156,2.4709999561309814 -5.258999824523926,2.0269999504089355 -5.258999824523926,1.5210000276565552 C-5.258999824523926,1.027999997138977 -5.104000091552734,0.6050000190734863 -4.794000148773193,0.2529999911785126 C-4.484000205993652,-0.11299999803304672 -4.019999980926514,-0.37299999594688416 -3.4000000953674316,-0.527999997138977 C-3.990999937057495,-0.7670000195503235 -4.448999881744385,-1.0839999914169312 -4.7729997634887695,-1.4780000448226929 C-5.0970001220703125,-1.8869999647140503 -5.258999824523926,-2.3940000534057617 -5.258999824523926,-2.999000072479248 C-5.258999824523926,-3.50600004196167 -5.125,-3.934999942779541 -4.85699987411499,-4.2870001792907715 C-4.590000152587891,-4.638999938964844 -4.188000202178955,-4.900000095367432 -3.6530001163482666,-5.068999767303467 C-3.131999969482422,-5.251999855041504 -2.492000102996826,-5.3429999351501465 -1.7319999933242798,-5.3429999351501465 C-1.7319999933242798,-5.3429999351501465 5.258999824523926,-5.3429999351501465 5.258999824523926,-5.3429999351501465 C5.258999824523926,-5.3429999351501465 5.258999824523926,-3.696000099182129 5.258999824523926,-3.696000099182129 C5.258999824523926,-3.696000099182129 -1.5199999809265137,-3.696000099182129 -1.5199999809265137,-3.696000099182129 C-2.2809998989105225,-3.696000099182129 -2.8510000705718994,-3.5969998836517334 -3.2309999465942383,-3.4000000953674316 C-3.625,-3.2170000076293945 -3.822000026702881,-2.885999917984009 -3.822000026702881,-2.4079999923706055 C-3.822000026702881,-2.0269999504089355 -3.703000068664551,-1.718000054359436 -3.4630000591278076,-1.4780000448226929 C-3.2239999771118164,-1.253000020980835 -2.9000000953674316,-1.0839999914169312 -2.492000102996826,-0.972000002861023 C-2.0980000495910645,-0.8730000257492065 -1.6610000133514404,-0.8240000009536743 -1.1820000410079956,-0.8240000009536743 C-1.1820000410079956,-0.8240000009536743 5.258999824523926,-0.8240000009536743 5.258999824523926,-0.8240000009536743 C5.258999824523926,-0.8240000009536743 5.258999824523926,0.8240000009536743 5.258999824523926,0.8240000009536743 C5.258999824523926,0.8240000009536743 -1.3940000534057617,0.8240000009536743 -1.3940000534057617,0.8240000009536743 C-2.181999921798706,0.8240000009536743 -2.7799999713897705,0.9290000200271606 -3.188999891281128,1.1399999856948853 C-3.6110000610351562,1.3519999980926514 -3.822000026702881,1.6970000267028809 -3.822000026702881,2.174999952316284 C-3.822000026702881,2.5409998893737793 -3.696000099182129,2.8369998931884766 -3.441999912261963,3.062000036239624 C-3.203000068664551,3.2880001068115234 -2.878999948501587,3.450000047683716 -2.4709999561309814,3.5480000972747803 C-2.062000036239624,3.6470000743865967 -1.6050000190734863,3.696000099182129 -1.0980000495910645,3.696000099182129 C-1.0980000495910645,3.696000099182129 5.258999824523926,3.696000099182129 5.258999824523926,3.696000099182129 C5.258999824523926,3.696000099182129 5.258999824523926,5.3429999351501465 5.258999824523926,5.3429999351501465z"></path></g><g opacity="1" transform="matrix(1,0,0,1,28.652999877929688,164.98800659179688)"><path fill="rgb(0,0,0)" fill-opacity="1" d=" M9.071000099182129,-1.0670000314712524 C9.071000099182129,-1.0670000314712524 8.902000427246094,-0.8980000019073486 8.902000427246094,-0.8980000019073486 C7.64900016784668,0.31299999356269836 6.310999870300293,1.25600004196167 4.888999938964844,1.9320000410079956 C3.453000068664551,2.6080000400543213 1.8270000219345093,2.946000099182129 0.010999999940395355,2.946000099182129 C-1.8619999885559082,2.946000099182129 -3.5230000019073486,2.5940001010894775 -4.973999977111816,1.8899999856948853 C-6.438000202178955,1.1859999895095825 -7.803999900817871,0.20000000298023224 -9.071000099182129,-1.0670000314712524 C-9.071000099182129,-1.0670000314712524 -9.071000099182129,-2.946000099182129 -9.071000099182129,-2.946000099182129 C-7.663000106811523,-1.6230000257492065 -6.241000175476074,-0.6159999966621399 -4.804999828338623,0.07400000095367432 C-3.368000030517578,0.7639999985694885 -1.7699999809265137,1.1089999675750732 -0.009999999776482582,1.1089999675750732 C1.7640000581741333,1.1089999675750732 3.36899995803833,0.7639999985694885 4.804999828338623,0.07400000095367432 C6.241000175476074,-0.6159999966621399 7.663000106811523,-1.6230000257492065 9.071000099182129,-2.946000099182129 C9.071000099182129,-2.946000099182129 9.071000099182129,-1.0670000314712524 9.071000099182129,-1.0670000314712524z"></path></g><g opacity="1" transform="matrix(1,0,0,1,27.607999801635742,189.24899291992188)"><path fill="rgb(0,0,0)" fill-opacity="1" d=" M7.390999794006348,5.934999942779541 C7.390999794006348,5.934999942779541 -7.390999794006348,1.2239999771118164 -7.390999794006348,1.2239999771118164 C-7.390999794006348,1.2239999771118164 -7.390999794006348,-1.2039999961853027 -7.390999794006348,-1.2039999961853027 C-7.390999794006348,-1.2039999961853027 7.390999794006348,-5.934999942779541 7.390999794006348,-5.934999942779541 C7.390999794006348,-5.934999942779541 7.390999794006348,-3.927999973297119 7.390999794006348,-3.927999973297119 C7.390999794006348,-3.927999973297119 -3.865000009536743,-0.4869999885559082 -3.865000009536743,-0.4869999885559082 C-3.992000102996826,-0.4440000057220459 -4.118000030517578,-0.4009999930858612 -4.244999885559082,-0.35899999737739563 C-4.370999813079834,-0.3310000002384186 -4.499000072479248,-0.296999990940094 -4.625999927520752,-0.2540000081062317 C-4.795000076293945,-0.1979999989271164 -4.964000225067139,-0.14800000190734863 -5.132999897003174,-0.10499999672174454 C-5.301000118255615,-0.06300000101327896 -5.4710001945495605,-0.014000000432133675 -5.638999938964844,0.041999999433755875 C-5.485000133514404,0.08500000089406967 -5.328999996185303,0.12600000202655792 -5.173999786376953,0.1679999977350235 C-5.0329999923706055,0.20999999344348907 -4.892000198364258,0.2540000081062317 -4.750999927520752,0.29600000381469727 C-4.611000061035156,0.33799999952316284 -4.464000225067139,0.3790000081062317 -4.309000015258789,0.421999990940094 C-4.168000221252441,0.46399998664855957 -4.019999980926514,0.5130000114440918 -3.865000009536743,0.5690000057220459 C-3.865000009536743,0.5690000057220459 7.390999794006348,4.01200008392334 7.390999794006348,4.01200008392334 C7.390999794006348,4.01200008392334 7.390999794006348,5.934999942779541 7.390999794006348,5.934999942779541z M2.999000072479248,3.2939999103546143 C2.999000072479248,3.2939999103546143 1.3940000534057617,3.2939999103546143 1.3940000534057617,3.2939999103546143 C1.3940000534057617,3.2939999103546143 1.3940000534057617,-3.3580000400543213 1.3940000534057617,-3.3580000400543213 C1.3940000534057617,-3.3580000400543213 2.999000072479248,-3.3580000400543213 2.999000072479248,-3.3580000400543213 C2.999000072479248,-3.3580000400543213 2.999000072479248,3.2939999103546143 2.999000072479248,3.2939999103546143z"></path></g><g opacity="1" transform="matrix(1,0,0,1,27.60700035095215,200.70799255371094)"><path fill="rgb(0,0,0)" fill-opacity="1" d=" M7.392000198364258,4.815000057220459 C7.392000198364258,4.815000057220459 -7.392000198364258,4.815000057220459 -7.392000198364258,4.815000057220459 C-7.392000198364258,4.815000057220459 -7.392000198364258,-4.815000057220459 -7.392000198364258,-4.815000057220459 C-7.392000198364258,-4.815000057220459 -5.7870001792907715,-4.815000057220459 -5.7870001792907715,-4.815000057220459 C-5.7870001792907715,-4.815000057220459 -5.7870001792907715,2.871999979019165 -5.7870001792907715,2.871999979019165 C-5.7870001792907715,2.871999979019165 -1.034999966621399,2.871999979019165 -1.034999966621399,2.871999979019165 C-1.034999966621399,2.871999979019165 -1.034999966621399,-4.455999851226807 -1.034999966621399,-4.455999851226807 C-1.034999966621399,-4.455999851226807 0.5699999928474426,-4.455999851226807 0.5699999928474426,-4.455999851226807 C0.5699999928474426,-4.455999851226807 0.5699999928474426,2.871999979019165 0.5699999928474426,2.871999979019165 C0.5699999928474426,2.871999979019165 7.392000198364258,2.871999979019165 7.392000198364258,2.871999979019165 C7.392000198364258,2.871999979019165 7.392000198364258,4.815000057220459 7.392000198364258,4.815000057220459z"></path></g><g opacity="1" transform="matrix(1,0,0,1,27.597000122070312,213.23399353027344)"><path fill="rgb(0,0,0)" fill-opacity="1" d=" M7.718999862670898,-0.3269999921321869 C7.718999862670898,0.8840000033378601 7.4019999504089355,1.9249999523162842 6.769000053405762,2.7980000972747803 C6.135000228881836,3.6710000038146973 5.234000205993652,4.333000183105469 4.065000057220459,4.783999919891357 C2.8970000743865967,5.234000205993652 1.5169999599456787,5.459000110626221 -0.07400000095367432,5.459000110626221 C-1.5809999704360962,5.459000110626221 -2.9110000133514404,5.21999979019165 -4.065999984741211,4.741000175476074 C-5.21999979019165,4.263000011444092 -6.113999843597412,3.5799999237060547 -6.748000144958496,2.693000078201294 C-7.395999908447266,1.7920000553131104 -7.718999862670898,0.75 -7.718999862670898,-0.43299999833106995 C-7.718999862670898,-1.4470000267028809 -7.49399995803833,-2.319999933242798 -7.044000148773193,-3.052000045776367 C-6.60699987411499,-3.7839999198913574 -6.001999855041504,-4.3470001220703125 -5.2270002365112305,-4.741000175476074 C-4.4670000076293945,-5.150000095367432 -3.5940001010894775,-5.388999938964844 -2.6080000400543213,-5.459000110626221 C-2.6080000400543213,-5.459000110626221 -2.6080000400543213,-3.3469998836517334 -2.6080000400543213,-3.3469998836517334 C-3.678999900817871,-3.2070000171661377 -4.5229997634887695,-2.882999897003174 -5.14300012588501,-2.375999927520752 C-5.776000022888184,-1.8830000162124634 -6.0929999351501465,-1.1859999895095825 -6.0929999351501465,-0.2849999964237213 C-6.0929999351501465,0.5170000195503235 -5.8470001220703125,1.2000000476837158 -5.354000091552734,1.7630000114440918 C-4.875,2.312999963760376 -4.184999942779541,2.7279999256134033 -3.2839999198913574,3.009999990463257 C-2.382999897003174,3.2909998893737793 -1.312999963760376,3.431999921798706 -0.07400000095367432,3.431999921798706 C1.1649999618530273,3.431999921798706 2.249000072479248,3.2909998893737793 3.177999973297119,3.009999990463257 C4.107999801635742,2.7139999866485596 4.833000183105469,2.2909998893737793 5.354000091552734,1.7419999837875366 C5.860000133514404,1.1790000200271606 6.113999843597412,0.503000020980835 6.113999843597412,-0.2849999964237213 C6.113999843597412,-1.2430000305175781 5.824999809265137,-1.9609999656677246 5.248000144958496,-2.438999891281128 C4.6570000648498535,-2.931999921798706 3.7839999198913574,-3.2769999504089355 2.628999948501587,-3.4739999771118164 C2.628999948501587,-3.4739999771118164 2.628999948501587,-5.459000110626221 2.628999948501587,-5.459000110626221 C3.6989998817443848,-5.3470001220703125 4.613999843597412,-5.078999996185303 5.375,-4.6570000648498535 C6.135000228881836,-4.249000072479248 6.718999862670898,-3.677999973297119 7.127999782562256,-2.946000099182129 C7.521999835968018,-2.2279999256134033 7.718999862670898,-1.3550000190734863 7.718999862670898,-0.3269999921321869z"></path></g><g opacity="1" transform="matrix(1,0,0,1,27.597000122070312,225.33799743652344)"><path fill="rgb(0,0,0)" fill-opacity="1" d=" M7.718999862670898,-0.041999999433755875 C7.718999862670898,1.0700000524520874 7.514999866485596,2.055000066757202 7.105999946594238,2.9140000343322754 C6.697999954223633,3.7730000019073486 6.113999843597412,4.441999912261963 5.354000091552734,4.921000003814697 C4.578999996185303,5.39900016784668 3.677999973297119,5.645999908447266 2.6500000953674316,5.659999847412109 C2.6500000953674316,5.659999847412109 2.6500000953674316,3.696000099182129 2.6500000953674316,3.696000099182129 C3.3540000915527344,3.6679999828338623 3.9670000076293945,3.492000102996826 4.48799991607666,3.1679999828338623 C5.008999824523926,2.8299999237060547 5.409999847412109,2.385999917984009 5.691999912261963,1.8370000123977661 C5.9730000495910645,1.2740000486373901 6.113999843597412,0.6399999856948853 6.113999843597412,-0.06400000303983688 C6.113999843597412,-0.7960000038146973 6.000999927520752,-1.4290000200271606 5.776000022888184,-1.9639999866485596 C5.551000118255615,-2.499000072479248 5.241000175476074,-2.9079999923706055 4.8470001220703125,-3.188999891281128 C4.438000202178955,-3.484999895095825 3.9739999771118164,-3.632999897003174 3.453000068664551,-3.632999897003174 C2.7769999504089355,-3.632999897003174 2.25600004196167,-3.378999948501587 1.8899999856948853,-2.871999979019165 C1.5099999904632568,-2.365999937057495 1.1929999589920044,-1.6050000190734863 0.9399999976158142,-0.5920000076293945 C0.9399999976158142,-0.5920000076293945 0.5379999876022339,0.949999988079071 0.5379999876022339,0.949999988079071 C0.1860000044107437,2.2309999465942383 -0.328000009059906,3.252000093460083 -1.003000020980835,4.013000011444092 C-1.6790000200271606,4.7729997634887695 -2.552000045776367,5.1529998779296875 -3.621999979019165,5.1529998779296875 C-4.396999835968018,5.1529998779296875 -5.093999862670898,4.934999942779541 -5.7129998207092285,4.498000144958496 C-6.331999778747559,4.047999858856201 -6.817999839782715,3.434999942779541 -7.170000076293945,2.6610000133514404 C-7.535999774932861,1.871999979019165 -7.718999862670898,0.9919999837875366 -7.718999862670898,0.020999999716877937 C-7.718999862670898,-0.9789999723434448 -7.535999774932861,-1.8660000562667847 -7.170000076293945,-2.640000104904175 C-6.803999900817871,-3.4149999618530273 -6.2829999923706055,-4.033999919891357 -5.60699987411499,-4.499000072479248 C-4.932000160217285,-4.9629998207092285 -4.14300012588501,-5.223999977111816 -3.242000102996826,-5.28000020980835 C-3.242000102996826,-5.28000020980835 -3.242000102996826,-3.315999984741211 -3.242000102996826,-3.315999984741211 C-3.819000005722046,-3.2739999294281006 -4.318999767303467,-3.0980000495910645 -4.741000175476074,-2.7880001068115234 C-5.177999973297119,-2.492000102996826 -5.508999824523926,-2.0980000495910645 -5.734000205993652,-1.6050000190734863 C-5.973999977111816,-1.1119999885559082 -6.0929999351501465,-0.5559999942779541 -6.0929999351501465,0.06300000101327896 C-6.0929999351501465,0.6399999856948853 -5.994999885559082,1.1610000133514404 -5.796999931335449,1.6260000467300415 C-5.599999904632568,2.0910000801086426 -5.326000213623047,2.4639999866485596 -4.973999977111816,2.744999885559082 C-4.622000217437744,3.013000011444092 -4.235000133514404,3.1470000743865967 -3.812000036239624,3.1470000743865967 C-3.1649999618530273,3.1470000743865967 -2.6440000534057617,2.934999942779541 -2.249000072479248,2.513000011444092 C-1.86899995803833,2.0769999027252197 -1.5520000457763672,1.3940000534057617 -1.2990000247955322,0.46399998664855957 C-1.2990000247955322,0.46399998664855957 -0.7710000276565552,-1.5 -0.7710000276565552,-1.5 C-0.5460000038146973,-2.3589999675750732 -0.25,-3.0910000801086426 0.11599999666213989,-3.696000099182129 C0.46799999475479126,-4.315999984741211 0.9120000004768372,-4.794000148773193 1.4459999799728394,-5.131999969482422 C1.9670000076293945,-5.484000205993652 2.5940001010894775,-5.659999847412109 3.3259999752044678,-5.659999847412109 C4.129000186920166,-5.659999847412109 4.868000030517578,-5.427999973297119 5.544000148773193,-4.9629998207092285 C6.204999923706055,-4.499000072479248 6.732999801635742,-3.8369998931884766 7.127999782562256,-2.9779999256134033 C7.521999835968018,-2.132999897003174 7.718999862670898,-1.1549999713897705 7.718999862670898,-0.041999999433755875z"></path></g><g opacity="1" transform="matrix(1,0,0,1,27.60700035095215,248.8280029296875)"><path fill="rgb(0,0,0)" fill-opacity="1" d=" M7.392000198364258,5.216000080108643 C7.392000198364258,5.216000080108643 -7.392000198364258,5.216000080108643 -7.392000198364258,5.216000080108643 C-7.392000198364258,5.216000080108643 -7.392000198364258,3.2939999103546143 -7.392000198364258,3.2939999103546143 C-7.392000198364258,3.2939999103546143 5.765999794006348,3.2939999103546143 5.765999794006348,3.2939999103546143 C5.765999794006348,3.2939999103546143 5.765999794006348,-5.2170000076293945 5.765999794006348,-5.2170000076293945 C5.765999794006348,-5.2170000076293945 7.392000198364258,-5.2170000076293945 7.392000198364258,-5.2170000076293945 C7.392000198364258,-5.2170000076293945 7.392000198364258,5.216000080108643 7.392000198364258,5.216000080108643z"></path></g><g opacity="1" transform="matrix(1,0,0,1,27.607999801635742,261.427001953125)"><path fill="rgb(0,0,0)" fill-opacity="1" d=" M7.390999794006348,5.934999942779541 C7.390999794006348,5.934999942779541 -7.390999794006348,1.2239999771118164 -7.390999794006348,1.2239999771118164 C-7.390999794006348,1.2239999771118164 -7.390999794006348,-1.2029999494552612 -7.390999794006348,-1.2029999494552612 C-7.390999794006348,-1.2029999494552612 7.390999794006348,-5.934000015258789 7.390999794006348,-5.934000015258789 C7.390999794006348,-5.934000015258789 7.390999794006348,-3.927999973297119 7.390999794006348,-3.927999973297119 C7.390999794006348,-3.927999973297119 -3.865000009536743,-0.48500001430511475 -3.865000009536743,-0.48500001430511475 C-3.992000102996826,-0.4429999887943268 -4.118000030517578,-0.4009999930858612 -4.244999885559082,-0.35899999737739563 C-4.370999813079834,-0.33000001311302185 -4.499000072479248,-0.29499998688697815 -4.625999927520752,-0.2529999911785126 C-4.795000076293945,-0.19699999690055847 -4.964000225067139,-0.1469999998807907 -5.132999897003174,-0.10499999672174454 C-5.301000118255615,-0.06300000101327896 -5.4710001945495605,-0.014000000432133675 -5.638999938964844,0.0430000014603138 C-5.485000133514404,0.08500000089406967 -5.328999996185303,0.12700000405311584 -5.173999786376953,0.16899999976158142 C-5.0329999923706055,0.21199999749660492 -4.892000198364258,0.2540000081062317 -4.750999927520752,0.29600000381469727 C-4.611000061035156,0.33799999952316284 -4.464000225067139,0.38100001215934753 -4.309000015258789,0.4230000078678131 C-4.168000221252441,0.4650000035762787 -4.019999980926514,0.5130000114440918 -3.865000009536743,0.5699999928474426 C-3.865000009536743,0.5699999928474426 7.390999794006348,4.013000011444092 7.390999794006348,4.013000011444092 C7.390999794006348,4.013000011444092 7.390999794006348,5.934999942779541 7.390999794006348,5.934999942779541z M2.999000072479248,3.2939999103546143 C2.999000072479248,3.2939999103546143 1.3940000534057617,3.2939999103546143 1.3940000534057617,3.2939999103546143 C1.3940000534057617,3.2939999103546143 1.3940000534057617,-3.3580000400543213 1.3940000534057617,-3.3580000400543213 C1.3940000534057617,-3.3580000400543213 2.999000072479248,-3.3580000400543213 2.999000072479248,-3.3580000400543213 C2.999000072479248,-3.3580000400543213 2.999000072479248,3.2939999103546143 2.999000072479248,3.2939999103546143z"></path></g><g opacity="1" transform="matrix(1,0,0,1,27.60700035095215,273.4679870605469)"><path fill="rgb(0,0,0)" fill-opacity="1" d=" M7.392000198364258,0.9610000252723694 C7.392000198364258,0.9610000252723694 -5.7870001792907715,0.9610000252723694 -5.7870001792907715,0.9610000252723694 C-5.7870001792907715,0.9610000252723694 -5.7870001792907715,5.776000022888184 -5.7870001792907715,5.776000022888184 C-5.7870001792907715,5.776000022888184 -7.392000198364258,5.776000022888184 -7.392000198364258,5.776000022888184 C-7.392000198364258,5.776000022888184 -7.392000198364258,-5.776000022888184 -7.392000198364258,-5.776000022888184 C-7.392000198364258,-5.776000022888184 -5.7870001792907715,-5.776000022888184 -5.7870001792907715,-5.776000022888184 C-5.7870001792907715,-5.776000022888184 -5.7870001792907715,-0.9610000252723694 -5.7870001792907715,-0.9610000252723694 C-5.7870001792907715,-0.9610000252723694 7.392000198364258,-0.9610000252723694 7.392000198364258,-0.9610000252723694 C7.392000198364258,-0.9610000252723694 7.392000198364258,0.9610000252723694 7.392000198364258,0.9610000252723694z"></path></g><g opacity="1" transform="matrix(1,0,0,1,27.597000122070312,285.48699951171875)"><path fill="rgb(0,0,0)" fill-opacity="1" d=" M7.718999862670898,0 C7.718999862670898,1.1130000352859497 7.415999889373779,2.0759999752044678 6.810999870300293,2.8929998874664307 C6.205999851226807,3.694999933242798 5.326000213623047,4.315999984741211 4.171000003814697,4.751999855041504 C3.0160000324249268,5.175000190734863 1.6299999952316284,5.385000228881836 0.009999999776482582,5.385000228881836 C-1.6089999675750732,5.385000228881836 -2.996000051498413,5.175000190734863 -4.150000095367432,4.751999855041504 C-5.318999767303467,4.315999984741211 -6.205999851226807,3.694999933242798 -6.810999870300293,2.8929998874664307 C-7.416999816894531,2.0759999752044678 -7.718999862670898,1.1130000352859497 -7.718999862670898,0 C-7.718999862670898,-1.1119999885559082 -7.416999816894531,-2.069000005722046 -6.810999870300293,-2.871999979019165 C-6.205999851226807,-3.688999891281128 -5.318999767303467,-4.308000087738037 -4.150000095367432,-4.730000019073486 C-2.996000051498413,-5.166999816894531 -1.6089999675750732,-5.385000228881836 0.009999999776482582,-5.385000228881836 C1.6299999952316284,-5.385000228881836 3.0160000324249268,-5.166999816894531 4.171000003814697,-4.730000019073486 C5.326000213623047,-4.308000087738037 6.205999851226807,-3.688999891281128 6.810999870300293,-2.871999979019165 C7.415999889373779,-2.069000005722046 7.718999862670898,-1.1119999885559082 7.718999862670898,0z M6.113999843597412,0 C6.113999843597412,-0.6759999990463257 5.875,-1.2669999599456787 5.395999908447266,-1.7740000486373901 C4.916999816894531,-2.2809998989105225 4.21999979019165,-2.6679999828338623 3.305000066757202,-2.934999942779541 C2.390000104904175,-3.2170000076293945 1.2920000553131104,-3.3580000400543213 0.009999999776482582,-3.3580000400543213 C-1.2710000276565552,-3.3580000400543213 -2.36899995803833,-3.2170000076293945 -3.2839999198913574,-2.934999942779541 C-4.198999881744385,-2.6679999828338623 -4.895999908447266,-2.2809998989105225 -5.375,-1.7740000486373901 C-5.854000091552734,-1.2669999599456787 -6.0929999351501465,-0.6759999990463257 -6.0929999351501465,0 C-6.0929999351501465,0.6899999976158142 -5.854000091552734,1.2879999876022339 -5.375,1.7940000295639038 C-4.895999908447266,2.3010001182556152 -4.198999881744385,2.697000026702881 -3.2839999198913574,2.9779999256134033 C-2.36899995803833,3.246000051498413 -1.2710000276565552,3.378999948501587 0.009999999776482582,3.378999948501587 C1.2920000553131104,3.378999948501587 2.390000104904175,3.246000051498413 3.305000066757202,2.9779999256134033 C4.21999979019165,2.697000026702881 4.916999816894531,2.3010001182556152 5.395999908447266,1.7940000295639038 C5.875,1.2879999876022339 6.113999843597412,0.6899999976158142 6.113999843597412,0z"></path></g><g opacity="1" transform="matrix(1,0,0,1,27.60700035095215,297.52801513671875)"><path fill="rgb(0,0,0)" fill-opacity="1" d=" M7.392000198364258,0.9610000252723694 C7.392000198364258,0.9610000252723694 -5.7870001792907715,0.9610000252723694 -5.7870001792907715,0.9610000252723694 C-5.7870001792907715,0.9610000252723694 -5.7870001792907715,5.776000022888184 -5.7870001792907715,5.776000022888184 C-5.7870001792907715,5.776000022888184 -7.392000198364258,5.776000022888184 -7.392000198364258,5.776000022888184 C-7.392000198364258,5.776000022888184 -7.392000198364258,-5.776000022888184 -7.392000198364258,-5.776000022888184 C-7.392000198364258,-5.776000022888184 -5.7870001792907715,-5.776000022888184 -5.7870001792907715,-5.776000022888184 C-5.7870001792907715,-5.776000022888184 -5.7870001792907715,-0.9610000252723694 -5.7870001792907715,-0.9610000252723694 C-5.7870001792907715,-0.9610000252723694 7.392000198364258,-0.9610000252723694 7.392000198364258,-0.9610000252723694 C7.392000198364258,-0.9610000252723694 7.392000198364258,0.9610000252723694 7.392000198364258,0.9610000252723694z"></path></g><g opacity="1" transform="matrix(1,0,0,1,318.2049865722656,445.5979919433594)"><path fill="rgb(0,0,0)" fill-opacity="1" d=" M-35.888999938964844,7.71999979019165 C-37.099998474121094,7.71999979019165 -38.141998291015625,7.4019999504089355 -39.01499938964844,6.76800012588501 C-39.88800048828125,6.135000228881836 -40.54999923706055,5.234000205993652 -41,4.065000057220459 C-41.45100021362305,2.8959999084472656 -41.67599868774414,1.5169999599456787 -41.67599868774414,-0.07400000095367432 C-41.67599868774414,-1.5809999704360962 -41.4370002746582,-2.9110000133514404 -40.95800018310547,-4.065999984741211 C-40.479000091552734,-5.21999979019165 -39.79600143432617,-6.113999843597412 -38.909000396728516,-6.747000217437744 C-38.007999420166016,-7.394999980926514 -36.965999603271484,-7.71999979019165 -35.784000396728516,-7.71999979019165 C-34.77000045776367,-7.71999979019165 -33.89699935913086,-7.493000030517578 -33.165000915527344,-7.043000221252441 C-32.43299865722656,-6.605999946594238 -31.8700008392334,-6.001999855041504 -31.475000381469727,-5.2270002365112305 C-31.066999435424805,-4.4670000076293945 -30.827999114990234,-3.5929999351501465 -30.756999969482422,-2.6080000400543213 C-30.756999969482422,-2.6080000400543213 -32.86899948120117,-2.6080000400543213 -32.86899948120117,-2.6080000400543213 C-33.0099983215332,-3.677999973297119 -33.33399963378906,-4.5229997634887695 -33.840999603271484,-5.142000198364258 C-34.33300018310547,-5.776000022888184 -35.029998779296875,-6.0920000076293945 -35.93199920654297,-6.0920000076293945 C-36.73400115966797,-6.0920000076293945 -37.41699981689453,-5.8470001220703125 -37.97999954223633,-5.354000091552734 C-38.52899932861328,-4.875 -38.94499969482422,-4.185999870300293 -39.22600173950195,-3.2839999198913574 C-39.507999420166016,-2.382999897003174 -39.64899826049805,-1.312999963760376 -39.64899826049805,-0.07400000095367432 C-39.64899826049805,1.1649999618530273 -39.507999420166016,2.249000072479248 -39.22600173950195,3.177999973297119 C-38.93000030517578,4.10699987411499 -38.507999420166016,4.831999778747559 -37.95899963378906,5.353000164031982 C-37.395999908447266,5.860000133514404 -36.720001220703125,6.114999771118164 -35.93199920654297,6.114999771118164 C-34.9739990234375,6.114999771118164 -34.25600051879883,5.826000213623047 -33.777000427246094,5.249000072479248 C-33.28499984741211,4.6570000648498535 -32.939998626708984,3.7839999198913574 -32.742000579833984,2.628999948501587 C-32.742000579833984,2.628999948501587 -30.756999969482422,2.628999948501587 -30.756999969482422,2.628999948501587 C-30.8700008392334,3.6989998817443848 -31.136999130249023,4.613999843597412 -31.559999465942383,5.375 C-31.968000411987305,6.135000228881836 -32.53799819946289,6.71999979019165 -33.27000045776367,7.127999782562256 C-33.98899841308594,7.5229997634887695 -34.861000061035156,7.71999979019165 -35.888999938964844,7.71999979019165z M-24.26099967956543,7.71999979019165 C-25.37299919128418,7.71999979019165 -26.336999893188477,7.415999889373779 -27.15399932861328,6.810999870300293 C-27.957000732421875,6.204999923706055 -28.576000213623047,5.326000213623047 -29.01300048828125,4.171999931335449 C-29.434999465942383,3.0169999599456787 -29.645999908447266,1.628999948501587 -29.645999908447266,0.009999999776482582 C-29.645999908447266,-1.6089999675750732 -29.434999465942383,-2.996000051498413 -29.01300048828125,-4.150000095367432 C-28.576000213623047,-5.318999767303467 -27.957000732421875,-6.205999851226807 -27.15399932861328,-6.810999870300293 C-26.336999893188477,-7.416999816894531 -25.37299919128418,-7.71999979019165 -24.26099967956543,-7.71999979019165 C-23.148000717163086,-7.71999979019165 -22.19099998474121,-7.416999816894531 -21.38800048828125,-6.810999870300293 C-20.57200050354004,-6.205999851226807 -19.95199966430664,-5.318999767303467 -19.530000686645508,-4.150000095367432 C-19.093000411987305,-2.996000051498413 -18.875,-1.6089999675750732 -18.875,0.009999999776482582 C-18.875,1.628999948501587 -19.093000411987305,3.0169999599456787 -19.530000686645508,4.171999931335449 C-19.95199966430664,5.326000213623047 -20.57200050354004,6.204999923706055 -21.38800048828125,6.810999870300293 C-22.19099998474121,7.415999889373779 -23.148000717163086,7.71999979019165 -24.26099967956543,7.71999979019165z M-24.26099967956543,6.114999771118164 C-23.584999084472656,6.114999771118164 -22.993000030517578,5.874000072479248 -22.48699951171875,5.395999908447266 C-21.979999542236328,4.916999816894531 -21.593000411987305,4.2210001945495605 -21.325000762939453,3.305999994277954 C-21.042999267578125,2.3910000324249268 -20.902999877929688,1.2910000085830688 -20.902999877929688,0.009999999776482582 C-20.902999877929688,-1.2710000276565552 -21.042999267578125,-2.36899995803833 -21.325000762939453,-3.2839999198913574 C-21.593000411987305,-4.199999809265137 -21.979999542236328,-4.896999835968018 -22.48699951171875,-5.375 C-22.993000030517578,-5.854000091552734 -23.584999084472656,-6.0920000076293945 -24.26099967956543,-6.0920000076293945 C-24.951000213623047,-6.0920000076293945 -25.548999786376953,-5.854000091552734 -26.055999755859375,-5.375 C-26.562999725341797,-4.896999835968018 -26.957000732421875,-4.199999809265137 -27.23900032043457,-3.2839999198913574 C-27.506000518798828,-2.36899995803833 -27.639999389648438,-1.2710000276565552 -27.639999389648438,0.009999999776482582 C-27.639999389648438,1.2910000085830688 -27.506000518798828,2.3910000324249268 -27.23900032043457,3.305999994277954 C-26.957000732421875,4.2210001945495605 -26.562999725341797,4.916999816894531 -26.055999755859375,5.395999908447266 C-25.548999786376953,5.874000072479248 -24.951000213623047,6.114999771118164 -24.26099967956543,6.114999771118164z M-17.066999435424805,7.4019999504089355 C-17.066999435424805,7.4019999504089355 -17.066999435424805,-7.381999969482422 -17.066999435424805,-7.381999969482422 C-17.066999435424805,-7.381999969482422 -14.08899974822998,-7.381999969482422 -14.08899974822998,-7.381999969482422 C-14.08899974822998,-7.381999969482422 -9.295000076293945,5.228000164031982 -9.295000076293945,5.228000164031982 C-9.295000076293945,5.228000164031982 -9.295000076293945,4.296999931335449 -9.295000076293945,4.296999931335449 C-9.295000076293945,4.296999931335449 -9.295000076293945,3.8329999446868896 -9.295000076293945,3.8329999446868896 C-9.295000076293945,3.8329999446868896 -9.295000076293945,3.368000030517578 -9.295000076293945,3.368000030517578 C-9.295000076293945,3.368000030517578 -9.295000076293945,-7.381999969482422 -9.295000076293945,-7.381999969482422 C-9.295000076293945,-7.381999969482422 -7.394000053405762,-7.381999969482422 -7.394000053405762,-7.381999969482422 C-7.394000053405762,-7.381999969482422 -7.394000053405762,7.4019999504089355 -7.394000053405762,7.4019999504089355 C-7.394000053405762,7.4019999504089355 -10.246000289916992,7.4019999504089355 -10.246000289916992,7.4019999504089355 C-10.246000289916992,7.4019999504089355 -15.187000274658203,-5.521999835968018 -15.187000274658203,-5.521999835968018 C-15.187000274658203,-5.521999835968018 -15.187000274658203,-4.994999885559082 -15.187000274658203,-4.994999885559082 C-15.187000274658203,-4.994999885559082 -15.187000274658203,-4.48799991607666 -15.187000274658203,-4.48799991607666 C-15.187000274658203,-4.48799991607666 -15.187000274658203,-4.107999801635742 -15.187000274658203,-4.107999801635742 C-15.187000274658203,-4.107999801635742 -15.187000274658203,-3.7279999256134033 -15.187000274658203,-3.7279999256134033 C-15.187000274658203,-3.7279999256134033 -15.187000274658203,7.4019999504089355 -15.187000274658203,7.4019999504089355 C-15.187000274658203,7.4019999504089355 -17.066999435424805,7.4019999504089355 -17.066999435424805,7.4019999504089355z M-1.1720000505447388,7.4019999504089355 C-1.1720000505447388,7.4019999504089355 -1.1720000505447388,-5.7769999504089355 -1.1720000505447388,-5.7769999504089355 C-1.1720000505447388,-5.7769999504089355 -5.98799991607666,-5.7769999504089355 -5.98799991607666,-5.7769999504089355 C-5.98799991607666,-5.7769999504089355 -5.98799991607666,-7.381999969482422 -5.98799991607666,-7.381999969482422 C-5.98799991607666,-7.381999969482422 5.565000057220459,-7.381999969482422 5.565000057220459,-7.381999969482422 C5.565000057220459,-7.381999969482422 5.565000057220459,-5.7769999504089355 5.565000057220459,-5.7769999504089355 C5.565000057220459,-5.7769999504089355 0.75,-5.7769999504089355 0.75,-5.7769999504089355 C0.75,-5.7769999504089355 0.75,7.4019999504089355 0.75,7.4019999504089355 C0.75,7.4019999504089355 -1.1720000505447388,7.4019999504089355 -1.1720000505447388,7.4019999504089355z M6.9079999923706055,7.4019999504089355 C6.9079999923706055,7.4019999504089355 6.9079999923706055,-7.381999969482422 6.9079999923706055,-7.381999969482422 C6.9079999923706055,-7.381999969482422 12.526000022888184,-7.381999969482422 12.526000022888184,-7.381999969482422 C13.947999954223633,-7.381999969482422 15.074000358581543,-7.035999774932861 15.904999732971191,-6.3460001945495605 C16.736000061035156,-5.670000076293945 17.150999069213867,-4.7210001945495605 17.150999069213867,-3.496000051498413 C17.150999069213867,-2.622999906539917 16.87700080871582,-1.8619999885559082 16.32699966430664,-1.215000033378601 C15.777999877929688,-0.5669999718666077 15.137999534606934,-0.13099999725818634 14.406000137329102,0.0949999988079071 C15.137999534606934,0.2070000022649765 15.722000122070312,0.5659999847412109 16.159000396728516,1.1720000505447388 C16.594999313354492,1.7630000114440918 16.812999725341797,2.5299999713897705 16.812999725341797,3.4739999771118164 C16.812999725341797,3.4739999771118164 16.812999725341797,7.4019999504089355 16.812999725341797,7.4019999504089355 C16.812999725341797,7.4019999504089355 14.890999794006348,7.4019999504089355 14.890999794006348,7.4019999504089355 C14.890999794006348,7.4019999504089355 14.890999794006348,4.002999782562256 14.890999794006348,4.002999782562256 C14.890999794006348,2.8480000495910645 14.652000427246094,2.052999973297119 14.17300033569336,1.6160000562667847 C13.708999633789062,1.1660000085830688 12.913000106811523,0.9390000104904175 11.786999702453613,0.9390000104904175 C11.786999702453613,0.9390000104904175 8.829999923706055,0.9390000104904175 8.829999923706055,0.9390000104904175 C8.829999923706055,0.9390000104904175 8.829999923706055,7.4019999504089355 8.829999923706055,7.4019999504089355 C8.829999923706055,7.4019999504089355 6.9079999923706055,7.4019999504089355 6.9079999923706055,7.4019999504089355z M12.039999961853027,-0.6859999895095825 C12.70199966430664,-0.6859999895095825 13.265000343322754,-0.7850000262260437 13.729999542236328,-0.9819999933242798 C14.208000183105469,-1.1799999475479126 14.567999839782715,-1.468000054359436 14.807000160217285,-1.8480000495910645 C15.0600004196167,-2.243000030517578 15.187000274658203,-2.7139999866485596 15.187000274658203,-3.263000011444092 C15.187000274658203,-4.093999862670898 14.911999702453613,-4.71999979019165 14.36299991607666,-5.142000198364258 C13.82800006866455,-5.564000129699707 13.053999900817871,-5.7769999504089355 12.039999961853027,-5.7769999504089355 C12.039999961853027,-5.7769999504089355 8.829999923706055,-5.7769999504089355 8.829999923706055,-5.7769999504089355 C8.829999923706055,-5.7769999504089355 8.829999923706055,-0.6859999895095825 8.829999923706055,-0.6859999895095825 C8.829999923706055,-0.6859999895095825 12.039999961853027,-0.6859999895095825 12.039999961853027,-0.6859999895095825z M23.858999252319336,7.71999979019165 C22.746999740600586,7.71999979019165 21.781999588012695,7.415999889373779 20.965999603271484,6.810999870300293 C20.163000106811523,6.204999923706055 19.542999267578125,5.326000213623047 19.10700035095215,4.171999931335449 C18.684999465942383,3.0169999599456787 18.472999572753906,1.628999948501587 18.472999572753906,0.009999999776482582 C18.472999572753906,-1.6089999675750732 18.684999465942383,-2.996000051498413 19.10700035095215,-4.150000095367432 C19.542999267578125,-5.318999767303467 20.163000106811523,-6.205999851226807 20.965999603271484,-6.810999870300293 C21.781999588012695,-7.416999816894531 22.746999740600586,-7.71999979019165 23.858999252319336,-7.71999979019165 C24.97100067138672,-7.71999979019165 25.929000854492188,-7.416999816894531 26.731000900268555,-6.810999870300293 C27.54800033569336,-6.205999851226807 28.16699981689453,-5.318999767303467 28.59000015258789,-4.150000095367432 C29.025999069213867,-2.996000051498413 29.243999481201172,-1.6089999675750732 29.243999481201172,0.009999999776482582 C29.243999481201172,1.628999948501587 29.025999069213867,3.0169999599456787 28.59000015258789,4.171999931335449 C28.16699981689453,5.326000213623047 27.54800033569336,6.204999923706055 26.731000900268555,6.810999870300293 C25.929000854492188,7.415999889373779 24.97100067138672,7.71999979019165 23.858999252319336,7.71999979019165z M23.858999252319336,6.114999771118164 C24.53499984741211,6.114999771118164 25.125999450683594,5.874000072479248 25.632999420166016,5.395999908447266 C26.139999389648438,4.916999816894531 26.527000427246094,4.2210001945495605 26.795000076293945,3.305999994277954 C27.076000213623047,2.3910000324249268 27.216999053955078,1.2910000085830688 27.216999053955078,0.009999999776482582 C27.216999053955078,-1.2710000276565552 27.076000213623047,-2.36899995803833 26.795000076293945,-3.2839999198913574 C26.527000427246094,-4.199999809265137 26.139999389648438,-4.896999835968018 25.632999420166016,-5.375 C25.125999450683594,-5.854000091552734 24.53499984741211,-6.0920000076293945 23.858999252319336,-6.0920000076293945 C23.16900062561035,-6.0920000076293945 22.570999145507812,-5.854000091552734 22.06399917602539,-5.375 C21.55699920654297,-4.896999835968018 21.163000106811523,-4.199999809265137 20.881000518798828,-3.2839999198913574 C20.61400032043457,-2.36899995803833 20.479999542236328,-1.2710000276565552 20.479999542236328,0.009999999776482582 C20.479999542236328,1.2910000085830688 20.61400032043457,2.3910000324249268 20.881000518798828,3.305999994277954 C21.163000106811523,4.2210001945495605 21.55699920654297,4.916999816894531 22.06399917602539,5.395999908447266 C22.570999145507812,5.874000072479248 23.16900062561035,6.114999771118164 23.858999252319336,6.114999771118164z M31.242000579833984,7.4019999504089355 C31.242000579833984,7.4019999504089355 31.242000579833984,-7.381999969482422 31.242000579833984,-7.381999969482422 C31.242000579833984,-7.381999969482422 33.16400146484375,-7.381999969482422 33.16400146484375,-7.381999969482422 C33.16400146484375,-7.381999969482422 33.16400146484375,5.776000022888184 33.16400146484375,5.776000022888184 C33.16400146484375,5.776000022888184 41.67599868774414,5.776000022888184 41.67599868774414,5.776000022888184 C41.67599868774414,5.776000022888184 41.67599868774414,7.4019999504089355 41.67599868774414,7.4019999504089355 C41.67599868774414,7.4019999504089355 31.242000579833984,7.4019999504089355 31.242000579833984,7.4019999504089355z"></path></g><g opacity="1" transform="matrix(1,0,0,1,594.1370239257812,444.6629943847656)"><path fill="rgb(0,0,0)" fill-opacity="1" d=" M-30.62700080871582,12.336999893188477 C-30.62700080871582,12.336999893188477 -22.777000427246094,-12.302000045776367 -22.777000427246094,-12.302000045776367 C-22.777000427246094,-12.302000045776367 -18.729999542236328,-12.302000045776367 -18.729999542236328,-12.302000045776367 C-18.729999542236328,-12.302000045776367 -10.845000267028809,12.336999893188477 -10.845000267028809,12.336999893188477 C-10.845000267028809,12.336999893188477 -14.189000129699707,12.336999893188477 -14.189000129699707,12.336999893188477 C-14.189000129699707,12.336999893188477 -19.926000595092773,-6.422999858856201 -19.926000595092773,-6.422999858856201 C-19.996999740600586,-6.633999824523926 -20.066999435424805,-6.8460001945495605 -20.13800048828125,-7.057000160217285 C-20.18400001525879,-7.26800012588501 -20.243000030517578,-7.480000019073486 -20.31399917602539,-7.690999984741211 C-20.406999588012695,-7.9730000495910645 -20.489999771118164,-8.253999710083008 -20.559999465942383,-8.53499984741211 C-20.6299991607666,-8.817000389099121 -20.711999893188477,-9.097999572753906 -20.805999755859375,-9.380000114440918 C-20.87700080871582,-9.121999740600586 -20.94700050354004,-8.864999771118164 -21.01799964904785,-8.607000350952148 C-21.08799934387207,-8.371999740600586 -21.158000946044922,-8.13599967956543 -21.229000091552734,-7.9019999504089355 C-21.298999786376953,-7.666999816894531 -21.3700008392334,-7.421999931335449 -21.440000534057617,-7.163000106811523 C-21.510000228881836,-6.928999900817871 -21.591999053955078,-6.681000232696533 -21.68600082397461,-6.422999858856201 C-21.68600082397461,-6.422999858856201 -27.423999786376953,12.336999893188477 -27.423999786376953,12.336999893188477 C-27.423999786376953,12.336999893188477 -30.62700080871582,12.336999893188477 -30.62700080871582,12.336999893188477z M-26.226999282836914,5.017000198364258 M-26.226999282836914,2.3399999141693115 C-26.226999282836914,2.3399999141693115 -15.138999938964844,2.3399999141693115 -15.138999938964844,2.3399999141693115 C-15.138999938964844,2.3399999141693115 -15.138999938964844,5.015999794006348 -15.138999938964844,5.015999794006348 C-15.138999938964844,5.015999794006348 -26.226999282836914,5.015999794006348 -26.226999282836914,5.015999794006348 C-26.226999282836914,5.015999794006348 -26.226999282836914,2.3399999141693115 -26.226999282836914,2.3399999141693115z M0.33500000834465027,12.866000175476074 C-1.565999984741211,12.866000175476074 -3.197000026702881,12.314000129699707 -4.558000087738037,11.211000442504883 C-5.895999908447266,10.107999801635742 -6.915999889373779,8.607000350952148 -7.619999885559082,6.705999851226807 C-8.324000358581543,4.7820000648498535 -8.675999641418457,2.5989999771118164 -8.675999641418457,0.15800000727176666 C-8.675999641418457,-2.5409998893737793 -8.288999557495117,-4.863999843597412 -7.514999866485596,-6.810999870300293 C-6.7170000076293945,-8.782999992370605 -5.591000080108643,-10.282999992370605 -4.136000156402588,-11.315999984741211 C-2.680999994277954,-12.347999572753906 -0.9559999704360962,-12.866000175476074 1.0390000343322754,-12.866000175476074 C2.563999891281128,-12.866000175476074 3.9019999504089355,-12.536999702453613 5.051000118255615,-11.880000114440918 C6.224999904632568,-11.246000289916992 7.1519999504089355,-10.342000007629395 7.831999778747559,-9.168999671936035 C8.53600025177002,-8.019000053405762 8.982000350952148,-6.681000232696533 9.170000076293945,-5.156000137329102 C9.170000076293945,-5.156000137329102 5.71999979019165,-5.156000137329102 5.71999979019165,-5.156000137329102 C5.556000232696533,-6.142000198364258 5.250999927520752,-7.011000156402588 4.804999828338623,-7.76200008392334 C4.382999897003174,-8.512999534606934 3.8310000896453857,-9.098999977111816 3.1510000228881836,-9.522000312805176 C2.49399995803833,-9.944000244140625 1.753999948501587,-10.154999732971191 0.9330000281333923,-10.154999732971191 C-0.4749999940395355,-10.154999732971191 -1.6480000019073486,-9.732999801635742 -2.5869998931884766,-8.887999534606934 C-3.502000093460083,-8.043000221252441 -4.183000087738037,-6.8470001220703125 -4.627999782562256,-5.297999858856201 C-5.073999881744385,-3.7730000019073486 -5.296999931335449,-1.9539999961853027 -5.296999931335449,0.15800000727176666 C-5.296999931335449,1.9880000352859497 -5.0980000495910645,3.6670000553131104 -4.698999881744385,5.192999839782715 C-4.276000022888184,6.693999767303467 -3.6080000400543213,7.9029998779296875 -2.691999912261963,8.817999839782715 C-1.7769999504089355,9.732999801635742 -0.5920000076293945,10.1899995803833 0.8629999756813049,10.1899995803833 C1.8949999809265137,10.1899995803833 2.809999942779541,9.907999992370605 3.6080000400543213,9.345000267028809 C4.429999828338623,8.758000373840332 5.074999809265137,7.9019999504089355 5.544000148773193,6.776000022888184 C6.013000011444092,5.625999927520752 6.248000144958496,4.241000175476074 6.248000144958496,2.621999979019165 C6.248000144958496,2.621999979019165 6.248000144958496,2.1640000343322754 6.248000144958496,2.1640000343322754 C6.248000144958496,2.1640000343322754 0.5460000038146973,2.1640000343322754 0.5460000038146973,2.1640000343322754 C0.5460000038146973,2.1640000343322754 0.5460000038146973,-0.5460000038146973 0.5460000038146973,-0.5460000038146973 C0.5460000038146973,-0.5460000038146973 9.204999923706055,-0.5460000038146973 9.204999923706055,-0.5460000038146973 C9.204999923706055,-0.5460000038146973 9.204999923706055,12.336999893188477 9.204999923706055,12.336999893188477 C9.204999923706055,12.336999893188477 6.53000020980835,12.336999893188477 6.53000020980835,12.336999893188477 C6.53000020980835,12.336999893188477 6.53000020980835,11.246000289916992 6.53000020980835,11.246000289916992 C6.53000020980835,11.246000289916992 6.53000020980835,10.647000312805176 6.53000020980835,10.647000312805176 C6.53000020980835,10.647000312805176 6.53000020980835,10.013999938964844 6.53000020980835,10.013999938964844 C6.53000020980835,10.013999938964844 6.53000020980835,9.486000061035156 6.53000020980835,9.486000061035156 C6.53000020980835,9.486000061035156 6.53000020980835,8.92300033569336 6.53000020980835,8.92300033569336 C6.013000011444092,10.166000366210938 5.2270002365112305,11.140000343322754 4.171000003814697,11.843999862670898 C3.115000009536743,12.524999618530273 1.8370000123977661,12.866000175476074 0.33500000834465027,12.866000175476074z M20.420000076293945,-4.945000171661377 C20.420000076293945,-4.945000171661377 20.420000076293945,-5.544000148773193 20.420000076293945,-5.544000148773193 C20.420000076293945,-5.544000148773193 20.420000076293945,-6.177999973297119 20.420000076293945,-6.177999973297119 C20.420000076293945,-6.177999973297119 20.420000076293945,-6.776000022888184 20.420000076293945,-6.776000022888184 C20.420000076293945,-6.776000022888184 20.420000076293945,-7.375 20.420000076293945,-7.375 C19.809999465942383,-6.388999938964844 18.96500015258789,-5.556000232696533 17.885000228881836,-4.875 C16.82900047302246,-4.2179999351501465 15.70300006866455,-3.865999937057495 14.505999565124512,-3.819000005722046 C14.505999565124512,-3.819000005722046 14.505999565124512,-6.916999816894531 14.505999565124512,-6.916999816894531 C15.913999557495117,-7.080999851226807 17.239999771118164,-7.679999828338623 18.483999252319336,-8.711999893188477 C19.750999450683594,-9.767999649047852 20.583999633789062,-10.96500015258789 20.982999801635742,-12.302000045776367 C20.982999801635742,-12.302000045776367 23.48200035095215,-12.302000045776367 23.48200035095215,-12.302000045776367 C23.48200035095215,-12.302000045776367 23.48200035095215,12.336999893188477 23.48200035095215,12.336999893188477 C23.48200035095215,12.336999893188477 20.420000076293945,12.336999893188477 20.420000076293945,12.336999893188477 C20.420000076293945,12.336999893188477 20.420000076293945,-4.945000171661377 20.420000076293945,-4.945000171661377z M12.956999778747559,12.336999893188477 M12.956999778747559,9.628000259399414 C12.956999778747559,9.628000259399414 30.62700080871582,9.628000259399414 30.62700080871582,9.628000259399414 C30.62700080871582,9.628000259399414 30.62700080871582,12.336999893188477 30.62700080871582,12.336999893188477 C30.62700080871582,12.336999893188477 12.956999778747559,12.336999893188477 12.956999778747559,12.336999893188477 C12.956999778747559,12.336999893188477 12.956999778747559,9.628000259399414 12.956999778747559,9.628000259399414z"></path></g></g></g></svg>